# xmcd
#
# Track frame offsets: 
#        150
#        5823
#        21907
#        33952
#        38050
#        52457
#        60207
#        73874
#        91917
#        93961
#        102394
#        118906
#        121478
#        153908
#        179530
#        181756
#        201343
#        204338
#
# Disc length: 2963 seconds
#
# Revision: 0
# Processed by: cddbd v1.5.2PL0 Copyright (c) Steve Scherf et al.
# Submitted via: ExactAudioCopy v1.0b3
#
DISCID=fa0b9112
DTITLE=Jessi Colter - Live From Cain's Ballroom
DYEAR=2013
DGENRE=Country
TTITLE0=Intro
TTITLE1=Mystery Train
TTITLE2=Can't Nobody Do Me Like Jesus
TTITLE3=Interlude 1
TTITLE4=Without You
TTITLE5=Interlude 2
TTITLE6=What's Happened To Blue Eyes (with David Chernicky)
TTITLE7=You Can Pick 'Em Baby
TTITLE8=Interlude 3
TTITLE9=You Were My Mountain
TTITLE10=I'm Not Lisa
TTITLE11=Interlude 4
TTITLE12=Out Of The Rain (with Shooter Jennings)
TTITLE13=Please Carry Me Home (with Shooter Jennings)
TTITLE14=Interlude 5
TTITLE15=Rainy Day Women #12 and 35
TTITLE16=Interlude 6
TTITLE17=Storms Never Last
EXTD=
EXTT0=
EXTT1=
EXTT2=
EXTT3=
EXTT4=
EXTT5=
EXTT6=
EXTT7=
EXTT8=
EXTT9=
EXTT10=
EXTT11=
EXTT12=
EXTT13=
EXTT14=
EXTT15=
EXTT16=
EXTT17=
PLAYORDER=
